<svg width="28" height="20" viewBox="0 0 28 20" fill="none" xmlns="http://www.w3.org/2000/svg">
<path d="M26 3H7.70885C7.4118 3 7.13012 3.13207 6.94013 3.36042L1.53213 9.86042C1.22376 10.2311 1.22376 10.7689 1.53213 11.1396L6.94013 17.6396C7.13012 17.8679 7.4118 18 7.70885 18H26C26.5523 18 27 17.5523 27 17V4C27 3.44772 26.5523 3 26 3Z" stroke="#447169"/>
<path d="M13.2224 12.528L18.1344 7.584L18.7744 8.272L13.8624 13.216L13.2224 12.528ZM13.2224 8.272L13.8624 7.584L18.7744 12.528L18.1344 13.216L13.2224 8.272Z" fill="#447169"/>
<path d="M13.2224 12.528L13.0806 12.387L12.945 12.5234L13.076 12.6642L13.2224 12.528ZM18.1344 7.584L18.2809 7.44778L18.1392 7.29546L17.9926 7.44304L18.1344 7.584ZM18.7744 8.272L18.9163 8.41296L19.0518 8.27656L18.9209 8.13578L18.7744 8.272ZM13.8624 13.216L13.716 13.3522L13.8577 13.5045L14.0043 13.357L13.8624 13.216ZM13.2224 8.272L13.076 8.13578L12.945 8.27656L13.0806 8.41296L13.2224 8.272ZM13.8624 7.584L14.0043 7.44304L13.8577 7.29546L13.716 7.44778L13.8624 7.584ZM18.7744 12.528L18.9209 12.6642L19.0518 12.5234L18.9163 12.387L18.7744 12.528ZM18.1344 13.216L17.9926 13.357L18.1392 13.5045L18.2809 13.3522L18.1344 13.216ZM13.3643 12.669L18.2763 7.72496L17.9926 7.44304L13.0806 12.387L13.3643 12.669ZM17.988 7.72022L18.628 8.40822L18.9209 8.13578L18.2809 7.44778L17.988 7.72022ZM18.6326 8.13104L13.7206 13.075L14.0043 13.357L18.9163 8.41296L18.6326 8.13104ZM14.0089 13.0798L13.3689 12.3918L13.076 12.6642L13.716 13.3522L14.0089 13.0798ZM13.3689 8.40822L14.0089 7.72022L13.716 7.44778L13.076 8.13578L13.3689 8.40822ZM13.7206 7.72496L18.6326 12.669L18.9163 12.387L14.0043 7.44304L13.7206 7.72496ZM18.628 12.3918L17.988 13.0798L18.2809 13.3522L18.9209 12.6642L18.628 12.3918ZM18.2763 13.075L13.3643 8.13104L13.0806 8.41296L17.9926 13.357L18.2763 13.075Z" fill="#447169"/>
</svg>
